<svg xmlns="http://www.w3.org/2000/svg" viewBox="0 0 3.2 3.2"><defs><style>.cls-1{fill:#fff;}</style></defs><g id="Calque_2" data-name="Calque 2"><g id="Calque_1-2" data-name="Calque 1"><path class="cls-1" d="M1.6,1.72a.16.16,0,0,1-.09,0,.15.15,0,0,1,0-.18L2.78.25H2.09A.12.12,0,0,1,2,.12.12.12,0,0,1,2.09,0h1s0,0,0,0,0,0,0,0a.06.06,0,0,1,0,0v1a.12.12,0,0,1-.12.12A.12.12,0,0,1,3,1.11V.42L1.69,1.69A.16.16,0,0,1,1.6,1.72Z"/><path class="cls-1" d="M2.75,3.2H.45A.45.45,0,0,1,0,2.75V.45A.45.45,0,0,1,.45,0h1a.13.13,0,0,1,.12.12.13.13,0,0,1-.12.13h-1a.2.2,0,0,0-.2.2v2.3a.2.2,0,0,0,.2.2h2.3a.2.2,0,0,0,.2-.2v-1a.13.13,0,0,1,.13-.12.12.12,0,0,1,.12.12v1A.45.45,0,0,1,2.75,3.2Z"/></g></g></svg>